Coordinates
version=1
nRows=22
nColumns=34
inDegrees=no

Units are S.I. units (second, meters, Newtons, ...)
If the header above contains a line with 'inDegrees', this indicates whether rotational values are in degrees (yes) or radians (no).

endheader
time	pelvis_tilt	pelvis_list	pelvis_rotation	pelvis_tx	pelvis_ty	pelvis_tz	hip_flexion_r	hip_adduction_r	hip_rotation_r	knee_angle_r	ankle_angle_r	subtalar_angle_r	mtp_angle_r	hip_flexion_l	hip_adduction_l	hip_rotation_l	knee_angle_l	ankle_angle_l	subtalar_angle_l	mtp_angle_l	lumbar_extension	lumbar_bending	lumbar_rotation	arm_flex_r	arm_add_r	arm_rot_r	elbow_flex_r	pro_sup_r	arm_flex_l	arm_add_l	arm_rot_l	elbow_flex_l	pro_sup_l
1.3	-0.110161	0.0534895	-0.0631672	-0.412716	0.971792	-0.565339	0.668885	-0.193197	-0.180107	0.431345	-0.729755	-0.125733	-0.126163	0.604093	-0.136422	-0.268589	0.325893	-0.675476	-0.0528183	-0.12494	-0.263044	0.0126906	-0.249746	1.49718	-0.691046	0.994921	1.65388	1.07148	-1.20506	-1.16019	-1.53137	1.56468	1.3392
1.31	-0.122439	0.0527684	-0.0628953	-0.40102	0.941113	-0.565537	0.729409	-0.185578	-0.136375	0.574378	-0.464911	-0.150963	-0.126154	0.672785	-0.135991	-0.230957	0.466108	-0.462016	-0.111142	-0.124938	-0.249553	0.00584458	-0.261401	1.47579	-0.803853	0.960255	1.70391	1.05613	-1.34445	-1.06979	-1.63794	1.61067	1.3136
1.32	-0.136959	0.0515787	-0.0631384	-0.390217	0.911846	-0.565712	0.791873	-0.177322	-0.0979164	0.707529	-0.237084	-0.171987	-0.126146	0.744775	-0.137251	-0.197324	0.601202	-0.275947	-0.160531	-0.124936	-0.237905	0.000328983	-0.263811	1.38833	-0.899277	0.863918	1.75353	1.04472	-1.45122	-0.991431	-1.7123	1.64813	1.29237
1.33	-0.153568	0.0499462	-0.0638927	-0.380322	0.884037	-0.565873	0.856113	-0.168511	-0.0646757	0.83078	-0.0463644	-0.188902	-0.126137	0.819746	-0.140151	-0.16767	0.730862	-0.117621	-0.201048	-0.124935	-0.228239	-0.00385895	-0.257124	1.23605	-0.976768	0.707171	1.80251	1.03726	-1.52577	-0.925073	-1.75484	1.67707	1.27547
1.34	-0.171707	0.0479795	-0.0651161	-0.371286	0.857713	-0.566031	0.921542	-0.159357	-0.0364498	0.944208	0.107664	-0.201954	-0.126129	0.896681	-0.144533	-0.14194	0.854325	0.0127242	-0.232902	-0.124933	-0.221008	-0.00673577	-0.241866	1.02353	-1.03483	0.494684	1.85017	1.03371	-1.56938	-0.870492	-1.7667	1.69744	1.26266
1.35	-0.19036	0.0458669	-0.0666852	-0.363147	0.833232	-0.566284	0.986934	-0.150246	-0.0128487	1.04813	0.226798	-0.211474	-0.12612	0.973628	-0.150074	-0.12002	0.97049	0.11597	-0.256518	-0.124931	-0.217043	-0.00838585	-0.219178	0.761073	-1.07117	0.236897	1.89514	1.03398	-1.58447	-0.827053	-1.75	1.70927	1.25348
1.36	-0.208151	0.043799	-0.0684017	-0.355606	0.810899	-0.566579	1.05049	-0.141706	0.00665628	1.14306	0.31469	-0.217795	-0.126112	1.0479	-0.156268	-0.101734	1.07813	0.19479	-0.272537	-0.12493	-0.21741	-0.00896075	-0.190937	0.466067	-1.0835	-0.0485809	1.9354	1.03786	-1.57457	-0.793505	-1.70783	1.71268	1.24722
1.37	-0.22369	0.0419386	-0.070031	-0.348606	0.790764	-0.566984	1.11021	-0.134275	0.0226345	1.22958	0.376679	-0.221209	-0.126103	1.11668	-0.162557	-0.0868082	1.17618	0.25351	-0.281813	-0.124928	-0.222927	-0.00864913	-0.159624	0.162169	-1.07076	-0.337841	1.96852	1.04499	-1.54409	-0.767905	-1.64411	1.70801	1.24309
1.38	-0.236186	0.0403872	-0.0713879	-0.342149	0.77239	-0.567495	1.16446	-0.128337	0.0356379	1.3082	0.419071	-0.221974	-0.126095	1.17783	-0.168472	-0.0748515	1.26394	0.297306	-0.285377	-0.124926	-0.233766	-0.00760749	-0.127956	-0.12454	-1.03418	-0.604624	1.99215	1.0549	-1.49788	-0.747777	-1.56331	1.69594	1.24036
1.39	-0.245549	0.0391628	-0.0723986	-0.336145	0.755574	-0.568089	1.21247	-0.123969	0.0461982	1.3793	0.44822	-0.220381	-0.126086	1.23054	-0.173771	-0.065337	1.34135	0.33123	-0.284362	-0.124925	-0.24911	-0.00594311	-0.0983907	-0.371429	-0.977619	-0.826349	2.00452	1.06697	-1.44076	-0.730471	-1.47016	1.67755	1.23852
1.4	-0.252444	0.0381899	-0.0731384	-0.33055	0.740046	-0.568752	1.25449	-0.120901	0.0548405	1.44327	0.469711	-0.216802	-0.126078	1.27544	-0.178467	-0.0576202	1.40901	0.359445	-0.279902	-0.124923	-0.26736	-0.00372723	-0.0726925	-0.56389	-0.906852	-0.988825	2.00493	1.08051	-1.37704	-0.713602	-1.36933	1.65429	1.23729
1.41	-0.257991	0.0372986	-0.0737935	-0.325334	0.725494	-0.569443	1.29147	-0.118597	0.0620669	1.50061	0.487844	-0.21171	-0.126069	1.31418	-0.182775	-0.0509922	1.46813	0.384842	-0.273019	-0.124921	-0.286583	-0.00102139	-0.0517215	-0.696826	-0.828355	-1.08784	1.99393	1.09488	-1.3102	-0.695404	-1.26519	1.62795	1.23662
1.42	-0.263371	0.0362807	-0.0745714	-0.320509	0.711724	-0.570058	1.32475	-0.116416	0.0683164	1.55199	0.505416	-0.205651	-0.126061	1.34893	-0.187	-0.0447649	1.52032	0.409026	-0.264551	-0.124919	-0.304983	0.00211675	-0.0354709	-0.773496	-0.748136	-1.12805	1.9732	1.10962	-1.24274	-0.674853	-1.16162	1.6005	1.2366
1.43	-0.269539	0.0349512	-0.0756107	-0.316047	0.698768	-0.570556	1.35571	-0.113794	0.0739304	1.59823	0.523763	-0.199214	-0.126052	1.38177	-0.191412	-0.0383673	1.56726	0.432566	-0.255157	-0.124918	-0.321264	0.00561903	-0.023297	-0.802905	-0.670938	-1.12027	1.94532	1.12454	-1.17618	-0.651614	-1.06191	1.57393	1.2373
1.44	-0.277073	0.0331846	-0.0769222	-0.311899	0.68652	-0.570971	1.38552	-0.110397	0.0791431	1.64024	0.542993	-0.192997	-0.126044	1.41429	-0.196121	-0.0314271	1.61039	0.455374	-0.245374	-0.124916	-0.334799	0.00938808	-0.0142267	-0.79684	-0.599902	-1.07841	1.9134	1.13974	-1.11113	-0.625861	-0.968664	1.55013	1.23875
1.45	-0.286129	0.030963	-0.0783777	-0.308051	0.674895	-0.571306	1.41497	-0.106205	0.084099	1.6789	0.56238	-0.187555	-0.126035	1.44738	-0.20099	-0.023809	1.65076	0.477087	-0.235685	-0.124914	-0.345607	0.0133078	-0.00724333	-0.767304	-0.536601	-1.01665	1.88072	1.15538	-1.04752	-0.598102	-0.883821	1.53068	1.24092
1.46	-0.296428	0.028377	-0.0797159	-0.304547	0.663896	-0.571572	1.44452	-0.101509	0.0888885	1.71499	0.580833	-0.183355	-0.126027	1.48118	-0.205625	-0.0156063	1.68893	0.497352	-0.226553	-0.124913	-0.35419	0.0172252	-0.00148992	-0.724697	-0.481324	-0.947445	1.85036	1.17142	-0.98478	-0.569022	-0.808559	1.51678	1.24378
1.47	-0.30751	0.0256422	-0.0805888	-0.301424	0.653459	-0.571822	1.4742	-0.0968297	0.0935937	1.7491	0.597321	-0.180727	-0.126018	1.51524	-0.209443	-0.00709581	1.72505	0.515964	-0.2184	-0.124911	-0.361405	0.0209579	0.00359931	-0.676804	-0.433499	-0.88029	1.82492	1.18775	-0.922085	-0.539377	-0.743335	1.50914	1.24732
1.48	-0.318793	0.023069	-0.0806335	-0.29868	0.643532	-0.572148	1.50374	-0.0927897	0.0983351	1.78157	0.611192	-0.179832	-0.12601	1.54871	-0.211787	0.00131512	1.75897	0.53287	-0.211575	-0.124909	-0.368199	0.0242962	0.0082248	-0.628471	-0.392117	-0.821253	1.80612	1.2044	-0.858555	-0.509903	-0.687945	1.50802	1.25152
1.49	-0.329693	0.0210369	-0.0795314	-0.29632	0.634135	-0.572616	1.53267	-0.0899733	0.103307	1.81253	0.622301	-0.180656	-0.126001	1.58064	-0.212064	0.00914174	1.79045	0.548097	-0.206329	-0.124907	-0.375414	0.0270068	0.0122101	-0.581817	-0.356079	-0.773081	1.79462	1.22212	-0.79345	-0.481263	-0.64167	1.51327	1.25641
1.5	-0.339737	0.0199358	-0.077074	-0.294326	0.625291	-0.573269	1.56043	-0.0888062	0.108785	1.84194	0.630984	-0.183002	-0.125993	1.61017	-0.209861	0.0158766	1.81921	0.561666	-0.202815	-0.124906	-0.383678	0.0288237	0.015036	-0.536757	-0.324416	-0.735662	1.78994	1.24221	-0.726282	-0.454009	-0.60346	1.5244	1.26198
1.51	-0.348567	0.020105	-0.0732171	-0.292663	0.617056	-0.574103	1.58642	-0.0894593	0.115095	1.86958	0.637898	-0.186525	-0.125984	1.63662	-0.205049	0.0210607	1.84503	0.573549	-0.201075	-0.124904	-0.393338	0.0294715	0.0159277	-0.491697	-0.296384	-0.706693	1.79056	1.26577	-0.65685	-0.42858	-0.572125	1.54067	1.26809
